Patient4_TMGait_0pt8_01_left_45_EMG.mot
version=1
nRows=37
nColumns=33
inDegrees=no
endheader
time	1LAddLong	2LGlutMax	3LGlutMed	4LIliopsoas	5LSemiMemb	6LBicFemLong	7LRecFem	8LVastMed	9LVastLat	10LGasMed	11LTibAnt	12lTibPost	13LPeroneusLong	14LSol	15LExtDigLong	16LFlexDigLong	17RAddLong	18RGlutMax	19RGlutMed	20RIliopsoas	21RSemiMemb	22RBicFemLong	23RRecFem	24RVastMed	25RVastLat	26RGasMed	27RTibAnt	28RTibPost	29RPeroneusLong	30RSol	31RExtDigLong	32RFlexDigLong
50.845	0.014496	0.54749	0.90302	-0.002289	-0.009308	-0.085602	-0.15549	-0.001984	-0.014648	0.14038	0.003357	0.12466	-0.27969	0.91812	0.036163	-0.10056	0.002441	0.097046	0.58243	-0.019531	0.093536	0.17059	-0.36118	0.072479	0.63019	-0.010529	-0.63309	-0.013428	-0.24551	0.12589	-0.005341	-0.016632
50.846	0.015411	0.50323	0.9053	0.009613	0.011749	-0.11322	-0.1207	0.005188	-0.018616	0.76523	-0.001373	0.07309	-0.25085	0.50598	0.062103	0.11124	0.006561	0.16693	-0.24429	-0.08255	0.19486	0.37674	-0.2243	-0.40009	-0.026703	-0.011597	-0.31479	-0.022888	0.8345	0.04425	0	-0.013275
50.847	0.017853	0.47409	0.90073	0.001373	0.048065	-0.19394	-0.10696	-0.001678	-0.007935	1.2671	-0.018768	-0.28244	-0.043182	-0.48675	0.052795	0.039673	0.008698	0.11032	-0.68756	-0.1651	0.19775	0.62927	-0.16907	-0.70862	-0.33722	-0.001373	0.007477	-0.019989	1.3284	-0.10498	-0.005341	-0.002747
50.848	0.013123	0.4718	0.86227	0.011902	0.045166	-0.19867	-0.095062	-0.005341	-0.010529	0.63614	-0.015106	-0.070038	0.13062	-0.36072	0.035706	0.035248	0.001984	-0.041046	-0.47516	-0.19928	0.11963	0.41657	-0.27069	-0.88333	-0.48874	0.008087	0.071869	-0.015717	0.44235	-0.10376	0.000763	0.005188
50.849	0.015259	0.45944	0.83496	0.002899	0.042114	-0.1268	-0.093536	0.004272	-0.026855	0.098419	-0.024567	0.051575	0.18295	-0.22064	-0.002136	-0.016937	0.010986	-0.023193	-0.44815	-0.1181	0.11856	0.13229	-0.18555	-0.99472	-0.37521	0.006561	0.009613	-0.011139	-0.29587	-0.02594	-0.001526	0.002747
50.85	0.012512	0.44998	0.80292	-0.017548	0.030518	0.00473	-0.063629	0.011749	-0.026245	0.1181	-0.037537	0.08606	0.043335	-0.41443	-0.019836	-0.47226	0.001373	-0.21698	-0.59845	0.06958	0.19714	0.034943	-0.10666	-1.129	-0.14542	0.001984	-0.49866	-0.014191	-0.74097	-0.065155	-0.001373	0.00412
50.851	0.013123	0.40939	0.78095	0.007172	0.029449	0.093079	-0.046844	0.000763	-0.015259	0.27039	-0.017853	-0.067596	0.022278	-0.18005	-0.030365	-0.26535	-0.015259	-0.43747	-0.60379	0.12268	0.10574	0.12528	-0.038605	-0.51041	-0.15778	-0.013885	-0.50934	-0.010681	-0.71549	0.020905	0.003204	-0.005798
50.852	0.009155	0.39688	0.74341	-0.015564	0.010376	0.10895	-0.036926	0.006104	-0.015259	-0.87708	-0.019531	0.022583	-0.034027	-0.46875	0.003662	0.71716	0.005188	-0.50827	-0.40558	0.11902	0.12711	0.11688	0.16083	-0.20187	-0.26642	-0.020142	-0.14465	-0.013885	-0.67856	0.019836	-0.000305	-0.001373
50.853	0.010834	0.36865	0.69778	0.003204	0.007782	0.064087	-0.04425	0.001984	-0.016632	-1.0722	-0.02594	0.23605	-0.047455	-0.67886	-0.024567	-0.17639	0.006561	-0.6395	-0.38361	0.1535	0.11856	0.049133	0.12253	0.016174	-0.24216	-0.013885	-0.1651	-0.009308	0.40222	-0.083466	-0.004883	0.002289
50.854	0.020447	0.31982	0.62439	0.02243	0.009308	0.036163	-0.032959	0.002289	-0.007019	-0.47104	-0.005188	-0.12863	-0.00885	-0.3952	-0.054932	0.12116	0.023956	-0.65659	-0.78659	0.15289	0.085754	-0.024872	0.015411	0.030975	-0.2507	-0.005798	-0.22812	-0.007019	0.45044	-0.14114	-0.003204	-0.00412
50.855	0.006409	0.354	0.60257	0.003967	0.00412	0.040894	-0.035553	0.007019	-0.003815	-0.18768	-0.007172	-0.074005	0.040131	0.025177	-0.055389	0.26443	0.05249	-0.45731	-0.99258	0.11597	0.04776	-0.068054	0.049896	0.15121	-0.31479	0.01236	-0.12054	-0.007019	-0.06073	-0.17654	-0.006409	-0.004272
50.856	0.012512	0.30304	0.6044	0.007629	0.011902	-0.010529	-0.03006	0.011597	-0.002899	-0.46997	0.011902	-0.12299	0.068817	0.513	-0.048828	-0.38483	0.074921	-0.42709	-0.93781	0.011292	0.020599	-0.16846	-0.045319	0.037231	-0.38193	0.010223	-0.19379	-0.00946	-0.62515	-0.17166	-0.002747	-0.001831
50.857	0.010223	0.26138	0.59815	0.023499	0.012665	-0.011597	-0.025635	0.008087	-0.000916	-0.56503	-0.013428	0.04303	0.00473	0.6247	-0.044556	0.37354	0.093536	-0.37125	-1.0915	-0.046692	-0.043945	-0.28976	-0.27283	0.03952	-0.46371	0.005035	-0.035095	-0.004425	-0.62012	-0.003662	-0.003357	-0.006256
50.858	0.011292	0.23575	0.62592	0.007935	0.007477	-0.00061	-0.002289	0.003662	-0.003967	-0.084686	-0.010376	-0.012512	-0.072327	0.29678	-0.024261	0.12054	0.11414	-0.40665	-1.0164	-0.048218	-0.10132	-0.33478	-0.49805	0.081177	-0.29007	-0.002747	-0.025787	-0.007019	-0.077057	0.00946	0.008087	-0.006561
50.859	0.00946	0.17807	0.63019	0.001221	0.025177	-0.054626	0.006256	0.010223	-0.005341	0.060425	0.003967	-0.042419	-0.052948	0.16953	-0.010071	-0.26306	0.14969	-0.41794	-0.79788	0.009613	-0.0737	-0.51834	-0.4335	0.017395	-0.08667	-0.005188	-0.099945	-0.006866	-0.091553	-0.070038	-0.002899	-0.004425
50.86	-0.002747	0.21606	0.52002	0.003815	0.018616	0.007324	0.028076	-0.003357	-0.007324	-0.050354	-0.024414	-0.032501	-0.001068	0.22598	0.002441	0.4245	0.14282	-0.42984	-0.23529	0.083466	-0.065002	-0.6311	-0.24323	-0.14526	0.098572	-0.009308	-0.36072	-0.00885	0.44647	0.08667	0.000153	-0.006714
50.861	0.004425	0.21973	0.51544	-0.009613	0.008545	0.070038	0.024719	0.009003	-0.010376	0.14084	-0.007629	-0.015564	0.041199	0.074158	0.005646	-0.056458	0.037842	-0.3125	-0.233	0.069733	-0.058899	-0.5072	0.004425	-0.34134	0.081177	-0.011444	-0.31708	-0.003357	0.78796	0.12543	0.000305	-0.002136
50.862	0.005951	0.23575	0.47363	0.009155	-0.025482	0.13443	0.04776	0.019684	-0.016785	-0.092621	-0.005798	-0.002136	0.013123	0.28412	0.038605	0.10117	-0.059509	-0.24094	-0.53085	-0.019531	0.007629	-0.21088	-0.10223	-0.21698	0.070648	-0.013275	-0.1088	-0.005646	-0.072327	-0.003357	0.001984	-0.000153
50.863	0.005035	0.2507	0.448	0.013885	-0.037537	0.20035	0.048218	0.003662	0.000153	-0.005341	-0.005035	0.005646	-0.10864	0.4776	0.037231	0.30609	-0.073853	-0.19455	-0.43671	-0.10849	0.10254	-0.14099	-0.2478	-0.16617	0.17258	-0.013733	-0.26947	-0.00412	-0.55527	-0.059357	-0.003662	-0.002747
50.864	0.015717	0.23758	0.42633	0.001221	-0.059509	0.24445	0.050049	0.00473	0.003967	0.18784	-0.003357	0.093384	-0.19531	0.45334	0.018158	0.067596	-0.05661	-0.14389	-0.40619	-0.03952	0.23743	-0.070953	-0.22858	-0.008545	0.18601	-0.004578	-0.51788	0.002441	0.037231	-0.057373	-0.001373	-0.000153
50.865	0.003052	0.24445	0.47775	-0.006714	-0.077667	0.14465	0.042267	0.002441	0.00946	0.29083	-0.004578	0.16129	-0.10193	0.41184	0.027008	-0.028687	-0.061493	-0.079193	-0.65109	-0.030212	0.15381	0.54398	-0.298	0.14404	0.081024	0.003815	-0.044556	-0.002747	0.26764	0.026093	-0.005035	-0.002441
50.866	0.006866	0.1915	0.43304	0.002899	-0.053864	0.03067	0.044861	0.002747	0.01297	0.36285	0.003967	-0.31616	0.019836	0.40634	-0.006714	-0.25879	-0.077209	-0.091095	-0.76096	-0.020905	0.007477	0.90057	-0.30258	0.23117	0.090332	-0.001831	0.35782	-0.005035	-0.063629	0.07019	-0.001068	-0.004272
50.867	0.020752	0.11765	0.38971	-0.00412	-0.011292	-0.063629	0.009766	-0.000916	0.019836	0.41336	0.004272	0.11307	0.068817	0.28717	0.011139	0.31662	-0.049438	-0.21683	-0.53207	0.017242	-0.076447	0.37582	-0.22949	0.030975	-0.055695	-0.007629	0.54916	-0.005798	-0.51148	0.12054	-0.002289	-0.004272
50.868	0.018616	0.12344	0.34821	-0.012512	0.039978	-0.22034	0.023651	0.006866	0.027466	0.22873	-0.011749	0.049133	0.03479	0.28076	0.027008	-0.33814	-0.007782	-0.31479	-0.33066	-0.067902	-0.085297	0.032349	-0.12741	-0.17425	0.021057	-0.000916	0.50064	-0.00351	-0.092773	0.15518	-0.007935	-0.008392
50.869	0.019379	0.10437	0.30182	0.014038	0.039978	-0.22568	0.04837	0.003967	0.029144	-0.23621	0.003052	-0.16495	-0.013428	0.44723	0.063019	0.073853	-0.025024	-0.26627	-0.28122	-0.18066	0.24307	-0.17731	0.014954	-0.27664	0.021362	-0.010834	0.47333	-0.001373	0.22537	0.14542	-0.005798	-0.00885
50.87	0.009155	0.069427	0.30548	0.004578	0.059357	-0.14771	0.075684	0.004272	0.028229	-0.28717	0.003357	-0.097504	0.056763	0.52719	0.06424	-0.20386	-0.045319	-0.33829	-0.32761	-0.16174	0.36819	-0.33707	0.11292	-0.24887	0.12421	-0.009003	0.074768	-0.001831	0.65765	0.10452	-0.002136	-0.011139
50.871	0.010071	0.084991	0.28809	-0.001068	0.034943	-0.094757	0.098267	0.002136	0.032501	0.081787	-0.010834	0.71472	-0.026093	0.11612	-0.008392	0.30975	-0.074615	-0.34805	-0.66254	0.003052	0.25711	-0.20432	0.26352	-0.15106	0.57312	-0.007782	-0.34744	-0.002747	0.76004	0.057831	-0.004272	-0.005798
50.872	0.001068	0.028229	0.27313	-0.010376	0.021973	-0.042267	0.10086	0.00412	0.032196	0.50919	-0.004272	0.16708	-0.048828	0.083771	0.034943	0.059814	-0.088959	-0.38666	-0.93597	0.18555	0.21896	0.047607	0.30502	0.20996	0.58273	-0.002594	-0.18326	-0.000916	0.55161	-0.021362	-0.002136	-0.006104
50.873	0.014343	0.028687	0.25543	0.003967	0.010071	0.005646	0.093689	-0.002747	0.031586	0.38361	-0.019684	-0.10346	0.084534	0.19592	-0.011597	-0.29312	-0.050354	-0.4335	-1.037	0.23285	0.12772	-0.069122	0.38635	0.39307	0.29282	0.001984	0.063782	0.005798	0.023651	-0.11551	-0.001373	-0.014038
50.874	0.010223	0.038147	0.23407	0.014191	-0.005951	-0.021515	0.075684	-0.001831	0.047607	-0.048065	0.000763	-0.21515	0.12009	-0.10956	-0.033722	-0.11581	-0.012207	-0.48859	-1.0164	0.2356	0.10315	-0.13596	0.63217	0.60318	-0.053711	0.000153	0.15671	-0.006866	-0.728	-0.089111	-0.003052	-0.009155
50.875	0.019379	0.076752	0.22751	0.008087	-0.010681	-0.080872	0.059967	-0.010681	0.041046	-0.14038	-0.032654	-0.19241	0.16296	0.23132	-0.050659	-0.11551	0.015411	-0.40756	-0.74432	0.12665	0.070648	0.000763	0.60974	0.52567	-0.27298	-0.002899	0.19104	-0.000305	-0.80399	-0.010223	-0.00351	-0.007782
50.876	0.016632	0.067139	0.24002	0.005951	-0.004425	-0.10956	0.077515	-0.001068	0.025024	0.021057	-0.0354	0.23148	0.1413	0.063324	-0.046844	-0.43579	0.045166	-0.43152	-0.43686	-0.024414	0.055847	0.26047	0.42786	0.70465	-0.23377	-0.007782	0.021515	-0.001984	-1.7897	0.040131	-0.002899	-0.015411
50.877	0.006256	0.063782	0.23727	-0.007782	0.026398	-0.12726	0.089111	0.00824	0.002899	-0.1796	-0.0177	0.43625	0.16342	0.37918	0.00885	0.26993	0.045624	-0.46387	0.51346	-0.16815	-0.072479	0.65552	0.022736	0.71686	-0.082092	-0.015411	-0.00412	-0.005188	-1.183	0.085754	-0.002747	-0.02121
50.878	0.000763	0.024261	0.22614	-0.003967	0.030975	-0.034485	0.10315	0.004883	0.001068	-0.021057	-0.031891	-0.6073	0.22919	-0.76492	-0.007019	0.24536	0.066986	-0.44693	0.7608	-0.11826	-0.18753	0.77637	-0.12466	0.59799	-0.29205	-0.013123	0.11017	-0.001068	-0.78186	-0.00885	-0.003052	-0.013885
50.879	0.003052	0.015106	0.22614	-0.000916	0.014648	0.11795	0.059357	0.005646	-0.005646	0.42419	-0.019989	-0.177	0.27832	-1.9487	-0.011902	-0.13275	0.14847	-0.42084	0.15656	-0.047455	-0.015106	0.27008	0.15228	0.20889	-0.21896	-0.010223	0.40085	0.001068	0.16556	-0.15045	-0.00351	-0.011139
50.88	0.003204	0.054169	0.21957	0.002747	0.001984	0.061798	0.038605	0.005493	-0.007477	-0.12741	-0.009308	-0.028229	0.24765	-2.2134	-0.009766	0.062256	0.17303	-0.44571	-0.53299	0.078125	-0.002441	-0.095673	0.45013	-0.40298	0.68314	-0.000458	0.64804	-0.002747	1.4949	-0.18799	-0.004883	-0.001068
50.881	-0.001831	0.062561	0.21454	0.001831	-0.006714	0.036926	0.028229	0.003815	-0.00061	-0.54275	-0.024719	-0.044861	0.1622	-1.1478	0.005188	0.21255	0.18799	-0.37537	0.34393	0.14511	-0.069885	-0.28671	0.1944	-0.91293	0.80887	0.003967	0.77087	0.004272	1.0493	-0.16846	-0.011139	0.004272
